<svg width="140" height="140" viewBox="0 0 140 140" fill="none" xmlns="http://www.w3.org/2000/svg">
<g id="users">
<rect id="bg" opacity="0.01" width="140" height="140" fill="white"/>
<g id="illustration">
<g id="Oval + Combined Shape Mask">
<circle id="Mask" cx="40" cy="50" r="24" fill="#D7DBEC"/>
<mask id="mask0_118_3069" style="mask-type:luminance" maskUnits="userSpaceOnUse" x="16" y="26" width="48" height="48">
<circle id="Mask_2" cx="40" cy="50" r="24" fill="white"/>
</mask>
<g mask="url(#mask0_118_3069)">
<circle id="Oval" cx="40" cy="44" r="8" fill="#131523"/>
<path id="Combined Shape" fill-rule="evenodd" clip-rule="evenodd" d="M23.0012 67.7938C25.6737 60.887 32.2774 56 40.0006 56C47.7238 56 54.3276 60.8872 57 67.7942C52.6944 72.2385 46.6693 75 40.0008 75C33.3321 75 27.3069 72.2384 23.0012 67.7938Z" fill="#131523"/>
</g>
</g>
<g id="Oval + Combined Shape Mask_2">
<circle id="Mask_3" cx="83.5" cy="73.5" r="40.5" fill="#3A4788"/>
<mask id="mask1_118_3069" style="mask-type:luminance" maskUnits="userSpaceOnUse" x="43" y="33" width="81" height="81">
<circle id="Mask_4" cx="83.5" cy="73.5" r="40.5" fill="white"/>
</mask>
<g mask="url(#mask1_118_3069)">
<circle id="Oval_2" cx="83.5" cy="63.5" r="13.5" fill="#B6CBFF"/>
<path id="Combined Shape_2" fill-rule="evenodd" clip-rule="evenodd" d="M53.8604 103.313C58.604 91.3867 69.8645 83 83.0005 83C96.6918 83 108.346 92.1108 112.707 104.844C105.311 112.363 95.1778 117 84 117C72.082 117 61.3517 111.729 53.8604 103.313Z" fill="#B6CBFF"/>
</g>
</g>
</g>
</g>
</svg>
